# 3ds Max Wavefront OBJ Exporter v0.97b - (c)2007 guruware
# File Created: 17.06.2015 12:34:02

mtllib Curtain.mtl

#
# object Curtain1
#

v  235.7955 0.0001 107.6314
v  234.1272 0.0001 92.5000
v  244.1272 0.0001 92.5000
v  244.4619 0.0001 110.1180
v  254.1337 0.0001 92.5000
v  254.1337 0.0001 109.1234
v  264.1716 0.0001 96.1231
v  261.6849 0.0001 111.2319
v  236.1270 0.0001 75.0000
v  244.1272 0.0001 75.0000
v  254.1337 0.0001 75.0000
v  262.3480 0.0001 74.9997
v  234.1272 0.0001 57.5000
v  244.1272 0.0001 57.5000
v  254.1337 0.0001 57.5000
v  261.8507 0.0001 58.1866
v  236.2928 0.0001 44.5232
v  244.1272 0.0001 40.0000
v  254.1337 0.0001 45.5179
v  263.4524 0.0001 42.9052
v  235.7955 0.0109 107.6314
v  244.4619 0.0109 110.1180
v  244.1272 0.0109 92.5000
v  234.1272 0.0109 92.5000
v  254.1207 0.0109 109.1234
v  254.1207 0.0109 92.5000
v  261.6849 0.0109 111.2319
v  264.1716 0.0109 96.1231
v  244.1272 0.0109 75.0000
v  236.1270 0.0109 75.0000
v  254.1207 0.0109 75.0000
v  262.3480 0.0109 74.9997
v  244.1272 0.0109 57.5000
v  234.1272 0.0109 57.5000
v  254.1207 0.0109 57.5000
v  261.8507 0.0109 58.1866
v  244.1272 0.0109 40.0000
v  236.2928 0.0109 44.5232
v  254.1207 0.0109 45.5179
v  263.4524 0.0109 42.9052
# 40 vertices

vn 0.0000 -1.0000 -0.0000
vn 0.0000 1.0000 -0.0000
# 2 vertex normals

vt 0.7390 0.0788 0.0000
vt 0.7247 0.2793 0.0000
vt 0.8102 0.2793 0.0000
vt 0.8131 0.0458 0.0000
vt 0.8958 0.2793 0.0000
vt 0.8958 0.0590 0.0000
vt 0.9816 0.2313 0.0000
vt 0.9604 0.0311 0.0000
vt 0.7418 0.5112 0.0000
vt 0.8102 0.5112 0.0000
vt 0.8958 0.5112 0.0000
vt 0.9661 0.5112 0.0000
vt 0.7247 0.7430 0.0000
vt 0.8102 0.7430 0.0000
vt 0.8958 0.7430 0.0000
vt 0.9618 0.7339 0.0000
vt 0.7432 0.9150 0.0000
vt 0.8102 0.9749 0.0000
vt 0.8958 0.9018 0.0000
vt 0.9755 0.9364 0.0000
vt 0.8103 0.2793 0.0000
vt 0.8957 0.0590 0.0000
vt 0.8957 0.2793 0.0000
vt 0.9817 0.2313 0.0000
vt 0.8103 0.5112 0.0000
vt 0.8957 0.5112 0.0000
vt 0.8103 0.7430 0.0000
vt 0.8957 0.7430 0.0000
vt 0.8103 0.9749 0.0000
vt 0.7433 0.9150 0.0000
vt 0.8957 0.9018 0.0000
# 31 texture coords

g Curtain1
usemtl Material__3
s 1
f 1/1/1 2/2/1 3/3/1 4/4/1 
f 4/4/1 3/3/1 5/5/1 6/6/1 
f 6/6/1 5/5/1 7/7/1 8/8/1 
f 2/2/1 9/9/1 10/10/1 3/3/1 
f 3/3/1 10/10/1 11/11/1 5/5/1 
f 5/5/1 11/11/1 12/12/1 7/7/1 
f 9/9/1 13/13/1 14/14/1 10/10/1 
f 10/10/1 14/14/1 15/15/1 11/11/1 
f 11/11/1 15/15/1 16/16/1 12/12/1 
f 13/13/1 17/17/1 18/18/1 14/14/1 
f 14/14/1 18/18/1 19/19/1 15/15/1 
f 15/15/1 19/19/1 20/20/1 16/16/1 
f 21/1/2 22/4/2 23/21/2 24/2/2 
f 22/4/2 25/22/2 26/23/2 23/21/2 
f 25/22/2 27/8/2 28/24/2 26/23/2 
f 24/2/2 23/21/2 29/25/2 30/9/2 
f 23/21/2 26/23/2 31/26/2 29/25/2 
f 26/23/2 28/24/2 32/12/2 31/26/2 
f 30/9/2 29/25/2 33/27/2 34/13/2 
f 29/25/2 31/26/2 35/28/2 33/27/2 
f 31/26/2 32/12/2 36/16/2 35/28/2 
f 34/13/2 33/27/2 37/29/2 38/30/2 
f 33/27/2 35/28/2 39/31/2 37/29/2 
f 35/28/2 36/16/2 40/20/2 39/31/2 
# 24 polygons

#
# object Curtain2
#

v  189.1383 0.0001 109.1234
v  191.2890 0.0001 88.5197
v  198.3065 0.0001 92.5000
v  198.3065 0.0001 109.1234
v  208.3065 0.0001 92.5000
v  208.3065 0.0001 110.0000
v  216.9283 0.0001 85.6791
v  215.4617 0.0001 108.1287
v  190.7936 0.0001 75.0000
v  198.3065 0.0001 75.0000
v  208.3065 0.0001 75.0000
v  218.3065 0.0001 75.0000
v  190.7936 0.0001 57.5000
v  198.3065 0.0001 57.5000
v  208.3065 0.0001 57.5000
v  215.6275 0.0001 57.5000
v  188.3130 0.0001 45.5179
v  197.6317 0.0001 42.9052
v  208.3065 0.0001 40.0000
v  218.2016 0.0001 42.9007
v  189.1253 0.0109 109.1234
v  198.3065 0.0109 109.1234
v  198.3065 0.0109 92.5000
v  191.2760 0.0109 88.5197
v  208.3065 0.0109 110.0000
v  208.3065 0.0109 92.5000
v  215.4617 0.0109 108.1287
v  216.9283 0.0109 85.6791
v  198.3065 0.0109 75.0000
v  190.7806 0.0109 75.0000
v  208.3065 0.0109 75.0000
v  218.3065 0.0109 75.0000
v  198.3065 0.0109 57.5000
v  190.7806 0.0109 57.5000
v  208.3065 0.0109 57.5000
v  215.6275 0.0109 57.5000
v  197.6317 0.0109 42.9052
v  188.3000 0.0109 45.5179
v  208.3065 0.0109 40.0000
v  218.2016 0.0109 42.9007
# 40 vertices

vn 0.0000 -1.0000 -0.0000
vn 0.0000 1.0000 -0.0000
# 2 vertex normals

vt 0.4366 0.0619 0.0000
vt 0.4551 0.3359 0.0000
vt 0.5153 0.2830 0.0000
vt 0.5153 0.0619 0.0000
vt 0.6011 0.2830 0.0000
vt 0.6011 0.0503 0.0000
vt 0.6751 0.3737 0.0000
vt 0.6625 0.0751 0.0000
vt 0.4508 0.5158 0.0000
vt 0.5153 0.5158 0.0000
vt 0.6011 0.5158 0.0000
vt 0.6870 0.5158 0.0000
vt 0.4508 0.7485 0.0000
vt 0.5153 0.7485 0.0000
vt 0.6011 0.7485 0.0000
vt 0.6640 0.7485 0.0000
vt 0.4295 0.9079 0.0000
vt 0.5095 0.9426 0.0000
vt 0.6011 0.9813 0.0000
vt 0.6861 0.9427 0.0000
vt 0.4365 0.0619 0.0000
vt 0.4550 0.3359 0.0000
vt 0.4507 0.5158 0.0000
vt 0.4507 0.7485 0.0000
vt 0.4294 0.9079 0.0000
# 25 texture coords

g Curtain2
usemtl Material__3
s 1
f 41/32/3 42/33/3 43/34/3 44/35/3 
f 44/35/3 43/34/3 45/36/3 46/37/3 
f 46/37/3 45/36/3 47/38/3 48/39/3 
f 42/33/3 49/40/3 50/41/3 43/34/3 
f 43/34/3 50/41/3 51/42/3 45/36/3 
f 45/36/3 51/42/3 52/43/3 47/38/3 
f 49/40/3 53/44/3 54/45/3 50/41/3 
f 50/41/3 54/45/3 55/46/3 51/42/3 
f 51/42/3 55/46/3 56/47/3 52/43/3 
f 53/44/3 57/48/3 58/49/3 54/45/3 
f 54/45/3 58/49/3 59/50/3 55/46/3 
f 55/46/3 59/50/3 60/51/3 56/47/3 
f 61/52/4 62/35/4 63/34/4 64/53/4 
f 62/35/4 65/37/4 66/36/4 63/34/4 
f 65/37/4 67/39/4 68/38/4 66/36/4 
f 64/53/4 63/34/4 69/41/4 70/54/4 
f 63/34/4 66/36/4 71/42/4 69/41/4 
f 66/36/4 68/38/4 72/43/4 71/42/4 
f 70/54/4 69/41/4 73/45/4 74/55/4 
f 69/41/4 71/42/4 75/46/4 73/45/4 
f 71/42/4 72/43/4 76/47/4 75/46/4 
f 74/55/4 73/45/4 77/49/4 78/56/4 
f 73/45/4 75/46/4 79/50/4 77/49/4 
f 75/46/4 76/47/4 80/51/4 79/50/4 
# 24 polygons

#
# object Curtain3
#

v  121.6617 0.0109 107.6314
v  130.3281 0.0109 110.1180
v  129.9935 0.0109 92.5000
v  119.9935 0.0109 92.5000
v  139.9870 0.0109 109.1234
v  139.9870 0.0109 92.5000
v  149.9935 0.0109 109.1234
v  149.9935 0.0109 92.5000
v  159.9935 0.0109 110.0000
v  159.9935 0.0109 92.5000
v  167.1487 0.0109 108.1287
v  168.6153 0.0109 85.6791
v  129.9935 0.0109 75.0000
v  121.9933 0.0109 75.0000
v  139.9870 0.0109 75.0000
v  149.9935 0.0109 75.0000
v  159.9935 0.0109 75.0000
v  169.9935 0.0109 75.0000
v  129.9935 0.0109 57.5000
v  119.9935 0.0109 57.5000
v  139.9870 0.0109 57.5000
v  149.9935 0.0109 57.5000
v  159.9935 0.0109 57.5000
v  167.3145 0.0109 57.5000
v  129.9935 0.0109 40.0000
v  122.1591 0.0109 44.5232
v  139.9870 0.0109 45.5179
v  149.3186 0.0109 42.9052
v  159.9935 0.0109 40.0000
v  169.8886 0.0109 42.9007
v  121.6617 0.0001 107.6314
v  119.9935 0.0001 92.5000
v  129.9935 0.0001 92.5000
v  130.3281 0.0001 110.1180
v  140.0000 0.0001 92.5000
v  140.0000 0.0001 109.1234
v  149.9935 0.0001 92.5000
v  149.9935 0.0001 109.1234
v  159.9935 0.0001 92.5000
v  159.9935 0.0001 110.0000
v  168.6153 0.0001 85.6791
v  167.1487 0.0001 108.1287
v  121.9933 0.0001 75.0000
v  129.9935 0.0001 75.0000
v  140.0000 0.0001 75.0000
v  149.9935 0.0001 75.0000
v  159.9935 0.0001 75.0000
v  169.9935 0.0001 75.0000
v  119.9935 0.0001 57.5000
v  129.9935 0.0001 57.5000
v  140.0000 0.0001 57.5000
v  149.9935 0.0001 57.5000
v  159.9935 0.0001 57.5000
v  167.3145 0.0001 57.5000
v  122.1591 0.0001 44.5232
v  129.9935 0.0001 40.0000
v  140.0000 0.0001 45.5179
v  149.3186 0.0001 42.9052
v  159.9935 0.0001 40.0000
v  169.8886 0.0001 42.9007
# 60 vertices

vn 0.0000 1.0000 -0.0000
vn 0.0000 -1.0000 -0.0000
# 2 vertex normals

vt 0.0378 0.1351 0.0000
vt 0.1033 0.1060 0.0000
vt 0.1008 0.3122 0.0000
vt 0.0252 0.3122 0.0000
vt 0.1763 0.1176 0.0000
vt 0.1763 0.3122 0.0000
vt 0.2519 0.1176 0.0000
vt 0.2519 0.3122 0.0000
vt 0.3274 0.1073 0.0000
vt 0.3274 0.3122 0.0000
vt 0.3815 0.1293 0.0000
vt 0.3926 0.3921 0.0000
vt 0.1008 0.5171 0.0000
vt 0.0403 0.5171 0.0000
vt 0.1763 0.5171 0.0000
vt 0.2519 0.5171 0.0000
vt 0.3274 0.5171 0.0000
vt 0.4030 0.5171 0.0000
vt 0.1008 0.7219 0.0000
vt 0.0252 0.7219 0.0000
vt 0.1763 0.7219 0.0000
vt 0.2519 0.7219 0.0000
vt 0.3274 0.7219 0.0000
vt 0.3827 0.7219 0.0000
vt 0.1008 0.9268 0.0000
vt 0.0416 0.8739 0.0000
vt 0.1763 0.8622 0.0000
vt 0.2468 0.8928 0.0000
vt 0.3274 0.9268 0.0000
vt 0.4022 0.8929 0.0000
vt 0.0382 0.1363 0.0000
vt 0.0256 0.3135 0.0000
vt 0.1012 0.3135 0.0000
vt 0.1037 0.1072 0.0000
vt 0.1768 0.3135 0.0000
vt 0.1768 0.1189 0.0000
vt 0.2523 0.3135 0.0000
vt 0.2523 0.1189 0.0000
vt 0.3278 0.3135 0.0000
vt 0.3278 0.1086 0.0000
vt 0.3930 0.3933 0.0000
vt 0.3819 0.1305 0.0000
vt 0.0407 0.5183 0.0000
vt 0.1012 0.5183 0.0000
vt 0.1768 0.5183 0.0000
vt 0.2523 0.5183 0.0000
vt 0.3278 0.5183 0.0000
vt 0.4034 0.5183 0.0000
vt 0.0256 0.7232 0.0000
vt 0.1012 0.7232 0.0000
vt 0.1768 0.7232 0.0000
vt 0.2523 0.7232 0.0000
vt 0.3278 0.7232 0.0000
vt 0.3831 0.7232 0.0000
vt 0.0420 0.8751 0.0000
vt 0.1012 0.9281 0.0000
vt 0.1768 0.8635 0.0000
vt 0.2472 0.8941 0.0000
vt 0.3278 0.9281 0.0000
vt 0.4026 0.8941 0.0000
# 60 texture coords

g Curtain3
usemtl Material__3
s 1
f 81/57/5 82/58/5 83/59/5 84/60/5 
f 82/58/5 85/61/5 86/62/5 83/59/5 
f 85/61/5 87/63/5 88/64/5 86/62/5 
f 87/63/5 89/65/5 90/66/5 88/64/5 
f 89/65/5 91/67/5 92/68/5 90/66/5 
f 84/60/5 83/59/5 93/69/5 94/70/5 
f 83/59/5 86/62/5 95/71/5 93/69/5 
f 86/62/5 88/64/5 96/72/5 95/71/5 
f 88/64/5 90/66/5 97/73/5 96/72/5 
f 90/66/5 92/68/5 98/74/5 97/73/5 
f 94/70/5 93/69/5 99/75/5 100/76/5 
f 93/69/5 95/71/5 101/77/5 99/75/5 
f 95/71/5 96/72/5 102/78/5 101/77/5 
f 96/72/5 97/73/5 103/79/5 102/78/5 
f 97/73/5 98/74/5 104/80/5 103/79/5 
f 100/76/5 99/75/5 105/81/5 106/82/5 
f 99/75/5 101/77/5 107/83/5 105/81/5 
f 101/77/5 102/78/5 108/84/5 107/83/5 
f 102/78/5 103/79/5 109/85/5 108/84/5 
f 103/79/5 104/80/5 110/86/5 109/85/5 
f 111/87/6 112/88/6 113/89/6 114/90/6 
f 114/90/6 113/89/6 115/91/6 116/92/6 
f 116/92/6 115/91/6 117/93/6 118/94/6 
f 118/94/6 117/93/6 119/95/6 120/96/6 
f 120/96/6 119/95/6 121/97/6 122/98/6 
f 112/88/6 123/99/6 124/100/6 113/89/6 
f 113/89/6 124/100/6 125/101/6 115/91/6 
f 115/91/6 125/101/6 126/102/6 117/93/6 
f 117/93/6 126/102/6 127/103/6 119/95/6 
f 119/95/6 127/103/6 128/104/6 121/97/6 
f 123/99/6 129/105/6 130/106/6 124/100/6 
f 124/100/6 130/106/6 131/107/6 125/101/6 
f 125/101/6 131/107/6 132/108/6 126/102/6 
f 126/102/6 132/108/6 133/109/6 127/103/6 
f 127/103/6 133/109/6 134/110/6 128/104/6 
f 129/105/6 135/111/6 136/112/6 130/106/6 
f 130/106/6 136/112/6 137/113/6 131/107/6 
f 131/107/6 137/113/6 138/114/6 132/108/6 
f 132/108/6 138/114/6 139/115/6 133/109/6 
f 133/109/6 139/115/6 140/116/6 134/110/6 
# 40 polygons

