# 3ds Max Wavefront OBJ Exporter v0.97b - (c)2007 guruware
# File Created: 10.04.2015 19:50:42

#
# object Object283
#

v  1136.8662 0.0000 -181.4503
v  1136.8662 0.0000 -171.4503
v  1120.9619 40.0000 -162.9429
v  1120.9619 40.0000 -189.9578
v  1136.8662 80.0000 -176.2786
v  1136.8662 80.0000 -168.5244
v  1156.7505 120.0000 -166.7959
v  1156.7505 120.0000 -186.1048
v  1120.7864 160.0000 -166.8116
v  1120.7864 160.0000 -186.0890
v  1096.8662 160.0000 -171.4503
v  1096.8662 160.0000 -181.4503
v  1044.5458 177.8113 -164.5703
v  1044.5458 177.8113 -188.3304
v  996.8662 160.0000 -171.4503
v  996.8662 160.0000 -181.4504
v  996.8662 120.0000 -171.4503
v  996.8662 120.0000 -181.4503
v  996.8662 80.0000 -171.4503
v  996.8662 80.0000 -181.4503
v  996.8662 40.0000 -171.4503
v  996.8662 40.0000 -181.4503
v  996.8662 -0.0000 -171.4503
v  996.8662 -0.0000 -181.4503
v  1056.8662 -0.0000 -171.4503
v  1056.8662 -0.0000 -181.4503
v  1096.8662 -0.0000 -171.4503
v  1096.8662 -0.0000 -181.4503
# 28 vertices

vn 0.9292 0.3695 -0.0000
vn 0.9136 -0.4067 0.0000
vn 0.9292 -0.3695 0.0000
vn 0.9136 -0.4066 0.0000
vn 0.8955 -0.4451 -0.0000
vn 0.7436 0.6686 -0.0000
vn -0.0000 1.0000 -0.0000
vn 0.1601 0.9871 -0.0000
vn -0.0134 0.9999 -0.0000
vn -0.3499 0.9368 -0.0000
vn -1.0000 0.0000 -0.0000
vn -1.0000 -0.0000 -0.0000
vn 0.0000 -1.0000 0.0000
# 13 vertex normals

vt 3.3660 0.0124 0.0000
vt 3.2705 0.2889 0.0000
vt 3.3732 0.5682 0.0000
vt 3.5012 0.8434 0.0000
vt 3.2709 1.1151 0.0000
vt 3.1141 1.1151 0.0000
vt 2.7741 1.2342 0.0000
vt 2.4622 1.1184 0.0000
vt 2.4614 0.8442 0.0000
vt 2.4614 0.5703 0.0000
vt 2.4620 0.2965 0.0000
vt 2.4617 0.0227 0.0000
vt 2.8786 0.4176 0.0000
vt 3.1083 0.2937 0.0000
# 14 texture coords

g Object283
s 2
f 4/2/1 3/2/1 2/1/1 1/1/1 
s 4
f 6/3/4 3/2/3 4/2/3 5/3/2 
f 8/4/5 7/4/5 6/3/4 5/3/2 
s 2
f 10/5/6 9/5/6 7/4/6 8/4/6 
s 4
f 12/6/8 11/6/8 9/5/7 10/5/7 
f 14/7/9 13/7/9 11/6/8 12/6/8 
f 16/8/10 15/8/10 13/7/9 14/7/9 
s 2
f 18/9/11 17/9/11 15/8/11 16/8/11 
f 20/10/12 19/10/12 17/9/11 18/9/11 
f 22/11/12 21/11/12 19/10/12 20/10/12 
f 24/12/12 23/12/12 21/11/12 22/11/12 
s 4
f 26/13/13 25/13/13 23/12/13 24/12/13 
f 28/14/13 27/14/13 25/13/13 26/13/13 
s 8
f 1/1/13 2/1/13 27/14/13 28/14/13 
# 14 polygons

